M48
; DRILL file {KiCad 9.0.2} date 2025-07-06T17:18:27+0530
; FORMAT={-:-/ absolute / metric / decimal}
; #@! TF.CreationDate,2025-07-06T17:18:27+05:30
; #@! TF.GenerationSoftware,Kicad,Pcbnew,9.0.2
; #@! TF.FileFunction,MixedPlating,1,2
FMAT,2
METRIC
; #@! TA.AperFunction,Plated,PTH,ViaDrill
T1C0.300
; #@! TA.AperFunction,Plated,PTH,ComponentDrill
T2C0.800
; #@! TA.AperFunction,Plated,PTH,ComponentDrill
T3C0.950
; #@! TA.AperFunction,Plated,PTH,ComponentDrill
T4C1.000
; #@! TA.AperFunction,Plated,PTH,ComponentDrill
T5C1.020
; #@! TA.AperFunction,Plated,PTH,ComponentDrill
T6C1.200
; #@! TA.AperFunction,NonPlated,NPTH,ComponentDrill
T7C4.300
%
G90
G05
T1
X49.45Y-89.231
X63.045Y-78.75
X69.75Y-108.999
X76.3Y-71.306
X76.7Y-84.08
X78.237Y-89.231
X87.15Y-59.356
X88.865Y-105.759
T2
X44.8Y-64.0
X44.8Y-68.75
X44.8Y-73.5
X44.8Y-78.25
X44.8Y-83.0
X44.8Y-87.75
X44.8Y-92.5
X57.5Y-64.0
X57.5Y-68.75
X57.5Y-73.5
X57.5Y-78.25
X57.5Y-83.0
X57.5Y-87.75
X57.5Y-92.5
X86.8Y-72.25
X86.8Y-77.0
X86.8Y-81.75
X86.8Y-86.5
X86.8Y-91.25
X86.8Y-96.0
X86.8Y-100.75
X86.8Y-105.5
X99.5Y-72.25
X99.5Y-77.0
X99.5Y-81.75
X99.5Y-86.5
X99.5Y-91.25
X99.5Y-96.0
X99.5Y-100.75
X99.5Y-105.5
T3
X42.0Y-53.5
X44.5Y-53.5
X47.0Y-53.5
X49.5Y-53.5
X52.0Y-53.5
X54.5Y-53.5
X57.0Y-53.5
X59.5Y-53.5
X90.0Y-54.5
X92.5Y-54.5
X95.0Y-54.5
X97.5Y-54.5
T4
X75.5Y-52.2
X75.5Y-59.8
T5
X65.0Y-71.88
X65.0Y-74.42
X65.0Y-76.96
X65.0Y-79.5
X65.0Y-82.04
X65.0Y-84.58
X65.0Y-87.12
X65.0Y-89.66
X65.0Y-92.2
X65.0Y-94.74
X65.0Y-97.28
X65.0Y-99.82
X65.0Y-102.36
X65.0Y-104.9
X65.0Y-107.44
X80.24Y-71.88
X80.24Y-74.42
X80.24Y-76.96
X80.24Y-79.5
X80.24Y-82.04
X80.24Y-84.58
X80.24Y-87.12
X80.24Y-89.66
X80.24Y-92.2
X80.24Y-94.74
X80.24Y-97.28
X80.24Y-99.82
X80.24Y-102.36
X80.24Y-104.9
X80.24Y-107.44
T6
X48.92Y-110.5
X49.0Y-101.5
X51.46Y-110.5
X51.54Y-101.5
X54.0Y-110.5
X54.08Y-101.5
T7
X42.0Y-99.0
X94.0Y-114.0
X95.0Y-64.5
M30
