%TF.GenerationSoftware,KiCad,Pcbnew,9.0.2*%
%TF.CreationDate,2025-07-06T17:18:11+05:30*%
%TF.ProjectId,apps,61707073-2e6b-4696-9361-645f70636258,rev?*%
%TF.SameCoordinates,Original*%
%TF.FileFunction,Legend,Bot*%
%TF.FilePolarity,Positive*%
%FSLAX46Y46*%
G04 Gerber Fmt 4.6, Leading zero omitted, Abs format (unit mm)*
G04 Created by KiCad (PCBNEW 9.0.2) date 2025-07-06 17:18:11*
%MOMM*%
%LPD*%
G01*
G04 APERTURE LIST*
%ADD10C,0.100000*%
G04 APERTURE END LIST*
D10*
X84178609Y-61946741D02*
X84178609Y-62899122D01*
X84750038Y-61756265D02*
X82750038Y-62422931D01*
X82750038Y-62422931D02*
X84750038Y-63089598D01*
X84750038Y-63756265D02*
X82750038Y-63756265D01*
X83511942Y-63756265D02*
X83416704Y-63946741D01*
X83416704Y-63946741D02*
X83416704Y-64327694D01*
X83416704Y-64327694D02*
X83511942Y-64518170D01*
X83511942Y-64518170D02*
X83607180Y-64613408D01*
X83607180Y-64613408D02*
X83797657Y-64708646D01*
X83797657Y-64708646D02*
X84369085Y-64708646D01*
X84369085Y-64708646D02*
X84559561Y-64613408D01*
X84559561Y-64613408D02*
X84654800Y-64518170D01*
X84654800Y-64518170D02*
X84750038Y-64327694D01*
X84750038Y-64327694D02*
X84750038Y-63946741D01*
X84750038Y-63946741D02*
X84654800Y-63756265D01*
X83416704Y-67946742D02*
X85035752Y-67946742D01*
X85035752Y-67946742D02*
X85226228Y-67851504D01*
X85226228Y-67851504D02*
X85321466Y-67756266D01*
X85321466Y-67756266D02*
X85416704Y-67565789D01*
X85416704Y-67565789D02*
X85416704Y-67280075D01*
X85416704Y-67280075D02*
X85321466Y-67089599D01*
X84654800Y-67946742D02*
X84750038Y-67756266D01*
X84750038Y-67756266D02*
X84750038Y-67375313D01*
X84750038Y-67375313D02*
X84654800Y-67184837D01*
X84654800Y-67184837D02*
X84559561Y-67089599D01*
X84559561Y-67089599D02*
X84369085Y-66994361D01*
X84369085Y-66994361D02*
X83797657Y-66994361D01*
X83797657Y-66994361D02*
X83607180Y-67089599D01*
X83607180Y-67089599D02*
X83511942Y-67184837D01*
X83511942Y-67184837D02*
X83416704Y-67375313D01*
X83416704Y-67375313D02*
X83416704Y-67756266D01*
X83416704Y-67756266D02*
X83511942Y-67946742D01*
X84750038Y-69756266D02*
X83702419Y-69756266D01*
X83702419Y-69756266D02*
X83511942Y-69661028D01*
X83511942Y-69661028D02*
X83416704Y-69470552D01*
X83416704Y-69470552D02*
X83416704Y-69089599D01*
X83416704Y-69089599D02*
X83511942Y-68899123D01*
X84654800Y-69756266D02*
X84750038Y-69565790D01*
X84750038Y-69565790D02*
X84750038Y-69089599D01*
X84750038Y-69089599D02*
X84654800Y-68899123D01*
X84654800Y-68899123D02*
X84464323Y-68803885D01*
X84464323Y-68803885D02*
X84273847Y-68803885D01*
X84273847Y-68803885D02*
X84083371Y-68899123D01*
X84083371Y-68899123D02*
X83988133Y-69089599D01*
X83988133Y-69089599D02*
X83988133Y-69565790D01*
X83988133Y-69565790D02*
X83892895Y-69756266D01*
X84750038Y-71565790D02*
X82750038Y-71565790D01*
X84654800Y-71565790D02*
X84750038Y-71375314D01*
X84750038Y-71375314D02*
X84750038Y-70994361D01*
X84750038Y-70994361D02*
X84654800Y-70803885D01*
X84654800Y-70803885D02*
X84559561Y-70708647D01*
X84559561Y-70708647D02*
X84369085Y-70613409D01*
X84369085Y-70613409D02*
X83797657Y-70613409D01*
X83797657Y-70613409D02*
X83607180Y-70708647D01*
X83607180Y-70708647D02*
X83511942Y-70803885D01*
X83511942Y-70803885D02*
X83416704Y-70994361D01*
X83416704Y-70994361D02*
X83416704Y-71375314D01*
X83416704Y-71375314D02*
X83511942Y-71565790D01*
X84750038Y-73375314D02*
X82750038Y-73375314D01*
X84654800Y-73375314D02*
X84750038Y-73184838D01*
X84750038Y-73184838D02*
X84750038Y-72803885D01*
X84750038Y-72803885D02*
X84654800Y-72613409D01*
X84654800Y-72613409D02*
X84559561Y-72518171D01*
X84559561Y-72518171D02*
X84369085Y-72422933D01*
X84369085Y-72422933D02*
X83797657Y-72422933D01*
X83797657Y-72422933D02*
X83607180Y-72518171D01*
X83607180Y-72518171D02*
X83511942Y-72613409D01*
X83511942Y-72613409D02*
X83416704Y-72803885D01*
X83416704Y-72803885D02*
X83416704Y-73184838D01*
X83416704Y-73184838D02*
X83511942Y-73375314D01*
X84750038Y-75184838D02*
X82750038Y-75184838D01*
X84654800Y-75184838D02*
X84750038Y-74994362D01*
X84750038Y-74994362D02*
X84750038Y-74613409D01*
X84750038Y-74613409D02*
X84654800Y-74422933D01*
X84654800Y-74422933D02*
X84559561Y-74327695D01*
X84559561Y-74327695D02*
X84369085Y-74232457D01*
X84369085Y-74232457D02*
X83797657Y-74232457D01*
X83797657Y-74232457D02*
X83607180Y-74327695D01*
X83607180Y-74327695D02*
X83511942Y-74422933D01*
X83511942Y-74422933D02*
X83416704Y-74613409D01*
X83416704Y-74613409D02*
X83416704Y-74994362D01*
X83416704Y-74994362D02*
X83511942Y-75184838D01*
X84750038Y-76137219D02*
X83416704Y-76137219D01*
X82750038Y-76137219D02*
X82845276Y-76041981D01*
X82845276Y-76041981D02*
X82940514Y-76137219D01*
X82940514Y-76137219D02*
X82845276Y-76232457D01*
X82845276Y-76232457D02*
X82750038Y-76137219D01*
X82750038Y-76137219D02*
X82940514Y-76137219D01*
X83416704Y-78327696D02*
X83416704Y-79089600D01*
X82750038Y-78613410D02*
X84464323Y-78613410D01*
X84464323Y-78613410D02*
X84654800Y-78708648D01*
X84654800Y-78708648D02*
X84750038Y-78899124D01*
X84750038Y-78899124D02*
X84750038Y-79089600D01*
X84654800Y-80518172D02*
X84750038Y-80327696D01*
X84750038Y-80327696D02*
X84750038Y-79946743D01*
X84750038Y-79946743D02*
X84654800Y-79756267D01*
X84654800Y-79756267D02*
X84464323Y-79661029D01*
X84464323Y-79661029D02*
X83702419Y-79661029D01*
X83702419Y-79661029D02*
X83511942Y-79756267D01*
X83511942Y-79756267D02*
X83416704Y-79946743D01*
X83416704Y-79946743D02*
X83416704Y-80327696D01*
X83416704Y-80327696D02*
X83511942Y-80518172D01*
X83511942Y-80518172D02*
X83702419Y-80613410D01*
X83702419Y-80613410D02*
X83892895Y-80613410D01*
X83892895Y-80613410D02*
X84083371Y-79661029D01*
X84750038Y-81470553D02*
X83416704Y-81470553D01*
X83797657Y-81470553D02*
X83607180Y-81565791D01*
X83607180Y-81565791D02*
X83511942Y-81661029D01*
X83511942Y-81661029D02*
X83416704Y-81851505D01*
X83416704Y-81851505D02*
X83416704Y-82041982D01*
X84750038Y-83565791D02*
X83702419Y-83565791D01*
X83702419Y-83565791D02*
X83511942Y-83470553D01*
X83511942Y-83470553D02*
X83416704Y-83280077D01*
X83416704Y-83280077D02*
X83416704Y-82899124D01*
X83416704Y-82899124D02*
X83511942Y-82708648D01*
X84654800Y-83565791D02*
X84750038Y-83375315D01*
X84750038Y-83375315D02*
X84750038Y-82899124D01*
X84750038Y-82899124D02*
X84654800Y-82708648D01*
X84654800Y-82708648D02*
X84464323Y-82613410D01*
X84464323Y-82613410D02*
X84273847Y-82613410D01*
X84273847Y-82613410D02*
X84083371Y-82708648D01*
X84083371Y-82708648D02*
X83988133Y-82899124D01*
X83988133Y-82899124D02*
X83988133Y-83375315D01*
X83988133Y-83375315D02*
X83892895Y-83565791D01*
X84750038Y-86041982D02*
X82750038Y-86041982D01*
X83511942Y-86041982D02*
X83416704Y-86232458D01*
X83416704Y-86232458D02*
X83416704Y-86613411D01*
X83416704Y-86613411D02*
X83511942Y-86803887D01*
X83511942Y-86803887D02*
X83607180Y-86899125D01*
X83607180Y-86899125D02*
X83797657Y-86994363D01*
X83797657Y-86994363D02*
X84369085Y-86994363D01*
X84369085Y-86994363D02*
X84559561Y-86899125D01*
X84559561Y-86899125D02*
X84654800Y-86803887D01*
X84654800Y-86803887D02*
X84750038Y-86613411D01*
X84750038Y-86613411D02*
X84750038Y-86232458D01*
X84750038Y-86232458D02*
X84654800Y-86041982D01*
X84750038Y-87851506D02*
X82750038Y-87851506D01*
X84750038Y-88708649D02*
X83702419Y-88708649D01*
X83702419Y-88708649D02*
X83511942Y-88613411D01*
X83511942Y-88613411D02*
X83416704Y-88422935D01*
X83416704Y-88422935D02*
X83416704Y-88137220D01*
X83416704Y-88137220D02*
X83511942Y-87946744D01*
X83511942Y-87946744D02*
X83607180Y-87851506D01*
X84750038Y-90518173D02*
X83702419Y-90518173D01*
X83702419Y-90518173D02*
X83511942Y-90422935D01*
X83511942Y-90422935D02*
X83416704Y-90232459D01*
X83416704Y-90232459D02*
X83416704Y-89851506D01*
X83416704Y-89851506D02*
X83511942Y-89661030D01*
X84654800Y-90518173D02*
X84750038Y-90327697D01*
X84750038Y-90327697D02*
X84750038Y-89851506D01*
X84750038Y-89851506D02*
X84654800Y-89661030D01*
X84654800Y-89661030D02*
X84464323Y-89565792D01*
X84464323Y-89565792D02*
X84273847Y-89565792D01*
X84273847Y-89565792D02*
X84083371Y-89661030D01*
X84083371Y-89661030D02*
X83988133Y-89851506D01*
X83988133Y-89851506D02*
X83988133Y-90327697D01*
X83988133Y-90327697D02*
X83892895Y-90518173D01*
X84750038Y-91470554D02*
X83416704Y-91470554D01*
X82750038Y-91470554D02*
X82845276Y-91375316D01*
X82845276Y-91375316D02*
X82940514Y-91470554D01*
X82940514Y-91470554D02*
X82845276Y-91565792D01*
X82845276Y-91565792D02*
X82750038Y-91470554D01*
X82750038Y-91470554D02*
X82940514Y-91470554D01*
X84654800Y-94803888D02*
X84750038Y-94613412D01*
X84750038Y-94613412D02*
X84750038Y-94232459D01*
X84750038Y-94232459D02*
X84654800Y-94041983D01*
X84654800Y-94041983D02*
X84559561Y-93946745D01*
X84559561Y-93946745D02*
X84369085Y-93851507D01*
X84369085Y-93851507D02*
X83797657Y-93851507D01*
X83797657Y-93851507D02*
X83607180Y-93946745D01*
X83607180Y-93946745D02*
X83511942Y-94041983D01*
X83511942Y-94041983D02*
X83416704Y-94232459D01*
X83416704Y-94232459D02*
X83416704Y-94613412D01*
X83416704Y-94613412D02*
X83511942Y-94803888D01*
X84750038Y-95661031D02*
X82750038Y-95661031D01*
X84750038Y-96518174D02*
X83702419Y-96518174D01*
X83702419Y-96518174D02*
X83511942Y-96422936D01*
X83511942Y-96422936D02*
X83416704Y-96232460D01*
X83416704Y-96232460D02*
X83416704Y-95946745D01*
X83416704Y-95946745D02*
X83511942Y-95756269D01*
X83511942Y-95756269D02*
X83607180Y-95661031D01*
X84750038Y-98327698D02*
X83702419Y-98327698D01*
X83702419Y-98327698D02*
X83511942Y-98232460D01*
X83511942Y-98232460D02*
X83416704Y-98041984D01*
X83416704Y-98041984D02*
X83416704Y-97661031D01*
X83416704Y-97661031D02*
X83511942Y-97470555D01*
X84654800Y-98327698D02*
X84750038Y-98137222D01*
X84750038Y-98137222D02*
X84750038Y-97661031D01*
X84750038Y-97661031D02*
X84654800Y-97470555D01*
X84654800Y-97470555D02*
X84464323Y-97375317D01*
X84464323Y-97375317D02*
X84273847Y-97375317D01*
X84273847Y-97375317D02*
X84083371Y-97470555D01*
X84083371Y-97470555D02*
X83988133Y-97661031D01*
X83988133Y-97661031D02*
X83988133Y-98137222D01*
X83988133Y-98137222D02*
X83892895Y-98327698D01*
X84750038Y-99565793D02*
X84654800Y-99375317D01*
X84654800Y-99375317D02*
X84464323Y-99280079D01*
X84464323Y-99280079D02*
X82750038Y-99280079D01*
X84750038Y-101184841D02*
X83702419Y-101184841D01*
X83702419Y-101184841D02*
X83511942Y-101089603D01*
X83511942Y-101089603D02*
X83416704Y-100899127D01*
X83416704Y-100899127D02*
X83416704Y-100518174D01*
X83416704Y-100518174D02*
X83511942Y-100327698D01*
X84654800Y-101184841D02*
X84750038Y-100994365D01*
X84750038Y-100994365D02*
X84750038Y-100518174D01*
X84750038Y-100518174D02*
X84654800Y-100327698D01*
X84654800Y-100327698D02*
X84464323Y-100232460D01*
X84464323Y-100232460D02*
X84273847Y-100232460D01*
X84273847Y-100232460D02*
X84083371Y-100327698D01*
X84083371Y-100327698D02*
X83988133Y-100518174D01*
X83988133Y-100518174D02*
X83988133Y-100994365D01*
X83988133Y-100994365D02*
X83892895Y-101184841D01*
X83416704Y-101946746D02*
X84750038Y-102422936D01*
X83416704Y-102899127D02*
X84750038Y-102422936D01*
X84750038Y-102422936D02*
X85226228Y-102232460D01*
X85226228Y-102232460D02*
X85321466Y-102137222D01*
X85321466Y-102137222D02*
X85416704Y-101946746D01*
X84654800Y-104422937D02*
X84750038Y-104232461D01*
X84750038Y-104232461D02*
X84750038Y-103851508D01*
X84750038Y-103851508D02*
X84654800Y-103661032D01*
X84654800Y-103661032D02*
X84464323Y-103565794D01*
X84464323Y-103565794D02*
X83702419Y-103565794D01*
X83702419Y-103565794D02*
X83511942Y-103661032D01*
X83511942Y-103661032D02*
X83416704Y-103851508D01*
X83416704Y-103851508D02*
X83416704Y-104232461D01*
X83416704Y-104232461D02*
X83511942Y-104422937D01*
X83511942Y-104422937D02*
X83702419Y-104518175D01*
X83702419Y-104518175D02*
X83892895Y-104518175D01*
X83892895Y-104518175D02*
X84083371Y-103565794D01*
X83416704Y-106232461D02*
X85035752Y-106232461D01*
X85035752Y-106232461D02*
X85226228Y-106137223D01*
X85226228Y-106137223D02*
X85321466Y-106041985D01*
X85321466Y-106041985D02*
X85416704Y-105851508D01*
X85416704Y-105851508D02*
X85416704Y-105565794D01*
X85416704Y-105565794D02*
X85321466Y-105375318D01*
X84654800Y-106232461D02*
X84750038Y-106041985D01*
X84750038Y-106041985D02*
X84750038Y-105661032D01*
X84750038Y-105661032D02*
X84654800Y-105470556D01*
X84654800Y-105470556D02*
X84559561Y-105375318D01*
X84559561Y-105375318D02*
X84369085Y-105280080D01*
X84369085Y-105280080D02*
X83797657Y-105280080D01*
X83797657Y-105280080D02*
X83607180Y-105375318D01*
X83607180Y-105375318D02*
X83511942Y-105470556D01*
X83511942Y-105470556D02*
X83416704Y-105661032D01*
X83416704Y-105661032D02*
X83416704Y-106041985D01*
X83416704Y-106041985D02*
X83511942Y-106232461D01*
X84750038Y-108041985D02*
X83702419Y-108041985D01*
X83702419Y-108041985D02*
X83511942Y-107946747D01*
X83511942Y-107946747D02*
X83416704Y-107756271D01*
X83416704Y-107756271D02*
X83416704Y-107375318D01*
X83416704Y-107375318D02*
X83511942Y-107184842D01*
X84654800Y-108041985D02*
X84750038Y-107851509D01*
X84750038Y-107851509D02*
X84750038Y-107375318D01*
X84750038Y-107375318D02*
X84654800Y-107184842D01*
X84654800Y-107184842D02*
X84464323Y-107089604D01*
X84464323Y-107089604D02*
X84273847Y-107089604D01*
X84273847Y-107089604D02*
X84083371Y-107184842D01*
X84083371Y-107184842D02*
X83988133Y-107375318D01*
X83988133Y-107375318D02*
X83988133Y-107851509D01*
X83988133Y-107851509D02*
X83892895Y-108041985D01*
X84559561Y-108994366D02*
X84654800Y-109089604D01*
X84654800Y-109089604D02*
X84750038Y-108994366D01*
X84750038Y-108994366D02*
X84654800Y-108899128D01*
X84654800Y-108899128D02*
X84559561Y-108994366D01*
X84559561Y-108994366D02*
X84750038Y-108994366D01*
X83988133Y-108994366D02*
X82845276Y-108899128D01*
X82845276Y-108899128D02*
X82750038Y-108994366D01*
X82750038Y-108994366D02*
X82845276Y-109089604D01*
X82845276Y-109089604D02*
X83988133Y-108994366D01*
X83988133Y-108994366D02*
X82750038Y-108994366D01*
X84559561Y-109946747D02*
X84654800Y-110041985D01*
X84654800Y-110041985D02*
X84750038Y-109946747D01*
X84750038Y-109946747D02*
X84654800Y-109851509D01*
X84654800Y-109851509D02*
X84559561Y-109946747D01*
X84559561Y-109946747D02*
X84750038Y-109946747D01*
X83988133Y-109946747D02*
X82845276Y-109851509D01*
X82845276Y-109851509D02*
X82750038Y-109946747D01*
X82750038Y-109946747D02*
X82845276Y-110041985D01*
X82845276Y-110041985D02*
X83988133Y-109946747D01*
X83988133Y-109946747D02*
X82750038Y-109946747D01*
X84559561Y-110899128D02*
X84654800Y-110994366D01*
X84654800Y-110994366D02*
X84750038Y-110899128D01*
X84750038Y-110899128D02*
X84654800Y-110803890D01*
X84654800Y-110803890D02*
X84559561Y-110899128D01*
X84559561Y-110899128D02*
X84750038Y-110899128D01*
X83988133Y-110899128D02*
X82845276Y-110803890D01*
X82845276Y-110803890D02*
X82750038Y-110899128D01*
X82750038Y-110899128D02*
X82845276Y-110994366D01*
X82845276Y-110994366D02*
X83988133Y-110899128D01*
X83988133Y-110899128D02*
X82750038Y-110899128D01*
X84559561Y-111851509D02*
X84654800Y-111946747D01*
X84654800Y-111946747D02*
X84750038Y-111851509D01*
X84750038Y-111851509D02*
X84654800Y-111756271D01*
X84654800Y-111756271D02*
X84559561Y-111851509D01*
X84559561Y-111851509D02*
X84750038Y-111851509D01*
X83988133Y-111851509D02*
X82845276Y-111756271D01*
X82845276Y-111756271D02*
X82750038Y-111851509D01*
X82750038Y-111851509D02*
X82845276Y-111946747D01*
X82845276Y-111946747D02*
X83988133Y-111851509D01*
X83988133Y-111851509D02*
X82750038Y-111851509D01*
X84559561Y-112803890D02*
X84654800Y-112899128D01*
X84654800Y-112899128D02*
X84750038Y-112803890D01*
X84750038Y-112803890D02*
X84654800Y-112708652D01*
X84654800Y-112708652D02*
X84559561Y-112803890D01*
X84559561Y-112803890D02*
X84750038Y-112803890D01*
X83988133Y-112803890D02*
X82845276Y-112708652D01*
X82845276Y-112708652D02*
X82750038Y-112803890D01*
X82750038Y-112803890D02*
X82845276Y-112899128D01*
X82845276Y-112899128D02*
X83988133Y-112803890D01*
X83988133Y-112803890D02*
X82750038Y-112803890D01*
X84559561Y-113756271D02*
X84654800Y-113851509D01*
X84654800Y-113851509D02*
X84750038Y-113756271D01*
X84750038Y-113756271D02*
X84654800Y-113661033D01*
X84654800Y-113661033D02*
X84559561Y-113756271D01*
X84559561Y-113756271D02*
X84750038Y-113756271D01*
X83988133Y-113756271D02*
X82845276Y-113661033D01*
X82845276Y-113661033D02*
X82750038Y-113756271D01*
X82750038Y-113756271D02*
X82845276Y-113851509D01*
X82845276Y-113851509D02*
X83988133Y-113756271D01*
X83988133Y-113756271D02*
X82750038Y-113756271D01*
X70297825Y-54351503D02*
X73297825Y-55351503D01*
X73297825Y-55351503D02*
X70297825Y-56351503D01*
X73297825Y-59065789D02*
X71869253Y-58065789D01*
X73297825Y-57351503D02*
X70297825Y-57351503D01*
X70297825Y-57351503D02*
X70297825Y-58494360D01*
X70297825Y-58494360D02*
X70440682Y-58780075D01*
X70440682Y-58780075D02*
X70583539Y-58922932D01*
X70583539Y-58922932D02*
X70869253Y-59065789D01*
X70869253Y-59065789D02*
X71297825Y-59065789D01*
X71297825Y-59065789D02*
X71583539Y-58922932D01*
X71583539Y-58922932D02*
X71726396Y-58780075D01*
X71726396Y-58780075D02*
X71869253Y-58494360D01*
X71869253Y-58494360D02*
X71869253Y-57351503D01*
X70297825Y-60922932D02*
X70297825Y-61494360D01*
X70297825Y-61494360D02*
X70440682Y-61780075D01*
X70440682Y-61780075D02*
X70726396Y-62065789D01*
X70726396Y-62065789D02*
X71297825Y-62208646D01*
X71297825Y-62208646D02*
X72297825Y-62208646D01*
X72297825Y-62208646D02*
X72869253Y-62065789D01*
X72869253Y-62065789D02*
X73154968Y-61780075D01*
X73154968Y-61780075D02*
X73297825Y-61494360D01*
X73297825Y-61494360D02*
X73297825Y-60922932D01*
X73297825Y-60922932D02*
X73154968Y-60637218D01*
X73154968Y-60637218D02*
X72869253Y-60351503D01*
X72869253Y-60351503D02*
X72297825Y-60208646D01*
X72297825Y-60208646D02*
X71297825Y-60208646D01*
X71297825Y-60208646D02*
X70726396Y-60351503D01*
X70726396Y-60351503D02*
X70440682Y-60637218D01*
X70440682Y-60637218D02*
X70297825Y-60922932D01*
X70297825Y-64065789D02*
X70297825Y-64637217D01*
X70297825Y-64637217D02*
X70440682Y-64922932D01*
X70440682Y-64922932D02*
X70726396Y-65208646D01*
X70726396Y-65208646D02*
X71297825Y-65351503D01*
X71297825Y-65351503D02*
X72297825Y-65351503D01*
X72297825Y-65351503D02*
X72869253Y-65208646D01*
X72869253Y-65208646D02*
X73154968Y-64922932D01*
X73154968Y-64922932D02*
X73297825Y-64637217D01*
X73297825Y-64637217D02*
X73297825Y-64065789D01*
X73297825Y-64065789D02*
X73154968Y-63780075D01*
X73154968Y-63780075D02*
X72869253Y-63494360D01*
X72869253Y-63494360D02*
X72297825Y-63351503D01*
X72297825Y-63351503D02*
X71297825Y-63351503D01*
X71297825Y-63351503D02*
X70726396Y-63494360D01*
X70726396Y-63494360D02*
X70440682Y-63780075D01*
X70440682Y-63780075D02*
X70297825Y-64065789D01*
X70297825Y-67208646D02*
X70297825Y-67780074D01*
X70297825Y-67780074D02*
X70440682Y-68065789D01*
X70440682Y-68065789D02*
X70726396Y-68351503D01*
X70726396Y-68351503D02*
X71297825Y-68494360D01*
X71297825Y-68494360D02*
X72297825Y-68494360D01*
X72297825Y-68494360D02*
X72869253Y-68351503D01*
X72869253Y-68351503D02*
X73154968Y-68065789D01*
X73154968Y-68065789D02*
X73297825Y-67780074D01*
X73297825Y-67780074D02*
X73297825Y-67208646D01*
X73297825Y-67208646D02*
X73154968Y-66922932D01*
X73154968Y-66922932D02*
X72869253Y-66637217D01*
X72869253Y-66637217D02*
X72297825Y-66494360D01*
X72297825Y-66494360D02*
X71297825Y-66494360D01*
X71297825Y-66494360D02*
X70726396Y-66637217D01*
X70726396Y-66637217D02*
X70440682Y-66922932D01*
X70440682Y-66922932D02*
X70297825Y-67208646D01*
X70297825Y-70351503D02*
X70297825Y-70922931D01*
X70297825Y-70922931D02*
X70440682Y-71208646D01*
X70440682Y-71208646D02*
X70726396Y-71494360D01*
X70726396Y-71494360D02*
X71297825Y-71637217D01*
X71297825Y-71637217D02*
X72297825Y-71637217D01*
X72297825Y-71637217D02*
X72869253Y-71494360D01*
X72869253Y-71494360D02*
X73154968Y-71208646D01*
X73154968Y-71208646D02*
X73297825Y-70922931D01*
X73297825Y-70922931D02*
X73297825Y-70351503D01*
X73297825Y-70351503D02*
X73154968Y-70065789D01*
X73154968Y-70065789D02*
X72869253Y-69780074D01*
X72869253Y-69780074D02*
X72297825Y-69637217D01*
X72297825Y-69637217D02*
X71297825Y-69637217D01*
X71297825Y-69637217D02*
X70726396Y-69780074D01*
X70726396Y-69780074D02*
X70440682Y-70065789D01*
X70440682Y-70065789D02*
X70297825Y-70351503D01*
X70297825Y-73494360D02*
X70297825Y-74065788D01*
X70297825Y-74065788D02*
X70440682Y-74351503D01*
X70440682Y-74351503D02*
X70726396Y-74637217D01*
X70726396Y-74637217D02*
X71297825Y-74780074D01*
X71297825Y-74780074D02*
X72297825Y-74780074D01*
X72297825Y-74780074D02*
X72869253Y-74637217D01*
X72869253Y-74637217D02*
X73154968Y-74351503D01*
X73154968Y-74351503D02*
X73297825Y-74065788D01*
X73297825Y-74065788D02*
X73297825Y-73494360D01*
X73297825Y-73494360D02*
X73154968Y-73208646D01*
X73154968Y-73208646D02*
X72869253Y-72922931D01*
X72869253Y-72922931D02*
X72297825Y-72780074D01*
X72297825Y-72780074D02*
X71297825Y-72780074D01*
X71297825Y-72780074D02*
X70726396Y-72922931D01*
X70726396Y-72922931D02*
X70440682Y-73208646D01*
X70440682Y-73208646D02*
X70297825Y-73494360D01*
X70297825Y-76637217D02*
X70297825Y-77208645D01*
X70297825Y-77208645D02*
X70440682Y-77494360D01*
X70440682Y-77494360D02*
X70726396Y-77780074D01*
X70726396Y-77780074D02*
X71297825Y-77922931D01*
X71297825Y-77922931D02*
X72297825Y-77922931D01*
X72297825Y-77922931D02*
X72869253Y-77780074D01*
X72869253Y-77780074D02*
X73154968Y-77494360D01*
X73154968Y-77494360D02*
X73297825Y-77208645D01*
X73297825Y-77208645D02*
X73297825Y-76637217D01*
X73297825Y-76637217D02*
X73154968Y-76351503D01*
X73154968Y-76351503D02*
X72869253Y-76065788D01*
X72869253Y-76065788D02*
X72297825Y-75922931D01*
X72297825Y-75922931D02*
X71297825Y-75922931D01*
X71297825Y-75922931D02*
X70726396Y-76065788D01*
X70726396Y-76065788D02*
X70440682Y-76351503D01*
X70440682Y-76351503D02*
X70297825Y-76637217D01*
X70297825Y-79780074D02*
X70297825Y-80351502D01*
X70297825Y-80351502D02*
X70440682Y-80637217D01*
X70440682Y-80637217D02*
X70726396Y-80922931D01*
X70726396Y-80922931D02*
X71297825Y-81065788D01*
X71297825Y-81065788D02*
X72297825Y-81065788D01*
X72297825Y-81065788D02*
X72869253Y-80922931D01*
X72869253Y-80922931D02*
X73154968Y-80637217D01*
X73154968Y-80637217D02*
X73297825Y-80351502D01*
X73297825Y-80351502D02*
X73297825Y-79780074D01*
X73297825Y-79780074D02*
X73154968Y-79494360D01*
X73154968Y-79494360D02*
X72869253Y-79208645D01*
X72869253Y-79208645D02*
X72297825Y-79065788D01*
X72297825Y-79065788D02*
X71297825Y-79065788D01*
X71297825Y-79065788D02*
X70726396Y-79208645D01*
X70726396Y-79208645D02*
X70440682Y-79494360D01*
X70440682Y-79494360D02*
X70297825Y-79780074D01*
X70297825Y-82922931D02*
X70297825Y-83494359D01*
X70297825Y-83494359D02*
X70440682Y-83780074D01*
X70440682Y-83780074D02*
X70726396Y-84065788D01*
X70726396Y-84065788D02*
X71297825Y-84208645D01*
X71297825Y-84208645D02*
X72297825Y-84208645D01*
X72297825Y-84208645D02*
X72869253Y-84065788D01*
X72869253Y-84065788D02*
X73154968Y-83780074D01*
X73154968Y-83780074D02*
X73297825Y-83494359D01*
X73297825Y-83494359D02*
X73297825Y-82922931D01*
X73297825Y-82922931D02*
X73154968Y-82637217D01*
X73154968Y-82637217D02*
X72869253Y-82351502D01*
X72869253Y-82351502D02*
X72297825Y-82208645D01*
X72297825Y-82208645D02*
X71297825Y-82208645D01*
X71297825Y-82208645D02*
X70726396Y-82351502D01*
X70726396Y-82351502D02*
X70440682Y-82637217D01*
X70440682Y-82637217D02*
X70297825Y-82922931D01*
X70297825Y-86065788D02*
X70297825Y-86637216D01*
X70297825Y-86637216D02*
X70440682Y-86922931D01*
X70440682Y-86922931D02*
X70726396Y-87208645D01*
X70726396Y-87208645D02*
X71297825Y-87351502D01*
X71297825Y-87351502D02*
X72297825Y-87351502D01*
X72297825Y-87351502D02*
X72869253Y-87208645D01*
X72869253Y-87208645D02*
X73154968Y-86922931D01*
X73154968Y-86922931D02*
X73297825Y-86637216D01*
X73297825Y-86637216D02*
X73297825Y-86065788D01*
X73297825Y-86065788D02*
X73154968Y-85780074D01*
X73154968Y-85780074D02*
X72869253Y-85494359D01*
X72869253Y-85494359D02*
X72297825Y-85351502D01*
X72297825Y-85351502D02*
X71297825Y-85351502D01*
X71297825Y-85351502D02*
X70726396Y-85494359D01*
X70726396Y-85494359D02*
X70440682Y-85780074D01*
X70440682Y-85780074D02*
X70297825Y-86065788D01*
X70297825Y-89208645D02*
X70297825Y-89780073D01*
X70297825Y-89780073D02*
X70440682Y-90065788D01*
X70440682Y-90065788D02*
X70726396Y-90351502D01*
X70726396Y-90351502D02*
X71297825Y-90494359D01*
X71297825Y-90494359D02*
X72297825Y-90494359D01*
X72297825Y-90494359D02*
X72869253Y-90351502D01*
X72869253Y-90351502D02*
X73154968Y-90065788D01*
X73154968Y-90065788D02*
X73297825Y-89780073D01*
X73297825Y-89780073D02*
X73297825Y-89208645D01*
X73297825Y-89208645D02*
X73154968Y-88922931D01*
X73154968Y-88922931D02*
X72869253Y-88637216D01*
X72869253Y-88637216D02*
X72297825Y-88494359D01*
X72297825Y-88494359D02*
X71297825Y-88494359D01*
X71297825Y-88494359D02*
X70726396Y-88637216D01*
X70726396Y-88637216D02*
X70440682Y-88922931D01*
X70440682Y-88922931D02*
X70297825Y-89208645D01*
X70297825Y-92351502D02*
X70297825Y-92922930D01*
X70297825Y-92922930D02*
X70440682Y-93208645D01*
X70440682Y-93208645D02*
X70726396Y-93494359D01*
X70726396Y-93494359D02*
X71297825Y-93637216D01*
X71297825Y-93637216D02*
X72297825Y-93637216D01*
X72297825Y-93637216D02*
X72869253Y-93494359D01*
X72869253Y-93494359D02*
X73154968Y-93208645D01*
X73154968Y-93208645D02*
X73297825Y-92922930D01*
X73297825Y-92922930D02*
X73297825Y-92351502D01*
X73297825Y-92351502D02*
X73154968Y-92065788D01*
X73154968Y-92065788D02*
X72869253Y-91780073D01*
X72869253Y-91780073D02*
X72297825Y-91637216D01*
X72297825Y-91637216D02*
X71297825Y-91637216D01*
X71297825Y-91637216D02*
X70726396Y-91780073D01*
X70726396Y-91780073D02*
X70440682Y-92065788D01*
X70440682Y-92065788D02*
X70297825Y-92351502D01*
X70297825Y-95494359D02*
X70297825Y-96065787D01*
X70297825Y-96065787D02*
X70440682Y-96351502D01*
X70440682Y-96351502D02*
X70726396Y-96637216D01*
X70726396Y-96637216D02*
X71297825Y-96780073D01*
X71297825Y-96780073D02*
X72297825Y-96780073D01*
X72297825Y-96780073D02*
X72869253Y-96637216D01*
X72869253Y-96637216D02*
X73154968Y-96351502D01*
X73154968Y-96351502D02*
X73297825Y-96065787D01*
X73297825Y-96065787D02*
X73297825Y-95494359D01*
X73297825Y-95494359D02*
X73154968Y-95208645D01*
X73154968Y-95208645D02*
X72869253Y-94922930D01*
X72869253Y-94922930D02*
X72297825Y-94780073D01*
X72297825Y-94780073D02*
X71297825Y-94780073D01*
X71297825Y-94780073D02*
X70726396Y-94922930D01*
X70726396Y-94922930D02*
X70440682Y-95208645D01*
X70440682Y-95208645D02*
X70297825Y-95494359D01*
X70297825Y-98637216D02*
X70297825Y-99208644D01*
X70297825Y-99208644D02*
X70440682Y-99494359D01*
X70440682Y-99494359D02*
X70726396Y-99780073D01*
X70726396Y-99780073D02*
X71297825Y-99922930D01*
X71297825Y-99922930D02*
X72297825Y-99922930D01*
X72297825Y-99922930D02*
X72869253Y-99780073D01*
X72869253Y-99780073D02*
X73154968Y-99494359D01*
X73154968Y-99494359D02*
X73297825Y-99208644D01*
X73297825Y-99208644D02*
X73297825Y-98637216D01*
X73297825Y-98637216D02*
X73154968Y-98351502D01*
X73154968Y-98351502D02*
X72869253Y-98065787D01*
X72869253Y-98065787D02*
X72297825Y-97922930D01*
X72297825Y-97922930D02*
X71297825Y-97922930D01*
X71297825Y-97922930D02*
X70726396Y-98065787D01*
X70726396Y-98065787D02*
X70440682Y-98351502D01*
X70440682Y-98351502D02*
X70297825Y-98637216D01*
X70297825Y-101780073D02*
X70297825Y-102351501D01*
X70297825Y-102351501D02*
X70440682Y-102637216D01*
X70440682Y-102637216D02*
X70726396Y-102922930D01*
X70726396Y-102922930D02*
X71297825Y-103065787D01*
X71297825Y-103065787D02*
X72297825Y-103065787D01*
X72297825Y-103065787D02*
X72869253Y-102922930D01*
X72869253Y-102922930D02*
X73154968Y-102637216D01*
X73154968Y-102637216D02*
X73297825Y-102351501D01*
X73297825Y-102351501D02*
X73297825Y-101780073D01*
X73297825Y-101780073D02*
X73154968Y-101494359D01*
X73154968Y-101494359D02*
X72869253Y-101208644D01*
X72869253Y-101208644D02*
X72297825Y-101065787D01*
X72297825Y-101065787D02*
X71297825Y-101065787D01*
X71297825Y-101065787D02*
X70726396Y-101208644D01*
X70726396Y-101208644D02*
X70440682Y-101494359D01*
X70440682Y-101494359D02*
X70297825Y-101780073D01*
X70297825Y-104922930D02*
X70297825Y-105494358D01*
X70297825Y-105494358D02*
X70440682Y-105780073D01*
X70440682Y-105780073D02*
X70726396Y-106065787D01*
X70726396Y-106065787D02*
X71297825Y-106208644D01*
X71297825Y-106208644D02*
X72297825Y-106208644D01*
X72297825Y-106208644D02*
X72869253Y-106065787D01*
X72869253Y-106065787D02*
X73154968Y-105780073D01*
X73154968Y-105780073D02*
X73297825Y-105494358D01*
X73297825Y-105494358D02*
X73297825Y-104922930D01*
X73297825Y-104922930D02*
X73154968Y-104637216D01*
X73154968Y-104637216D02*
X72869253Y-104351501D01*
X72869253Y-104351501D02*
X72297825Y-104208644D01*
X72297825Y-104208644D02*
X71297825Y-104208644D01*
X71297825Y-104208644D02*
X70726396Y-104351501D01*
X70726396Y-104351501D02*
X70440682Y-104637216D01*
X70440682Y-104637216D02*
X70297825Y-104922930D01*
X73297825Y-107494358D02*
X70297825Y-107494358D01*
X70297825Y-107494358D02*
X72440682Y-108494358D01*
X72440682Y-108494358D02*
X70297825Y-109494358D01*
X70297825Y-109494358D02*
X73297825Y-109494358D01*
X73012110Y-110922929D02*
X73154968Y-111065786D01*
X73154968Y-111065786D02*
X73297825Y-110922929D01*
X73297825Y-110922929D02*
X73154968Y-110780072D01*
X73154968Y-110780072D02*
X73012110Y-110922929D01*
X73012110Y-110922929D02*
X73297825Y-110922929D01*
X72154968Y-110922929D02*
X70440682Y-110780072D01*
X70440682Y-110780072D02*
X70297825Y-110922929D01*
X70297825Y-110922929D02*
X70440682Y-111065786D01*
X70440682Y-111065786D02*
X72154968Y-110922929D01*
X72154968Y-110922929D02*
X70297825Y-110922929D01*
X73012110Y-112351500D02*
X73154968Y-112494357D01*
X73154968Y-112494357D02*
X73297825Y-112351500D01*
X73297825Y-112351500D02*
X73154968Y-112208643D01*
X73154968Y-112208643D02*
X73012110Y-112351500D01*
X73012110Y-112351500D02*
X73297825Y-112351500D01*
X72154968Y-112351500D02*
X70440682Y-112208643D01*
X70440682Y-112208643D02*
X70297825Y-112351500D01*
X70297825Y-112351500D02*
X70440682Y-112494357D01*
X70440682Y-112494357D02*
X72154968Y-112351500D01*
X72154968Y-112351500D02*
X70297825Y-112351500D01*
X73012110Y-113780071D02*
X73154968Y-113922928D01*
X73154968Y-113922928D02*
X73297825Y-113780071D01*
X73297825Y-113780071D02*
X73154968Y-113637214D01*
X73154968Y-113637214D02*
X73012110Y-113780071D01*
X73012110Y-113780071D02*
X73297825Y-113780071D01*
X72154968Y-113780071D02*
X70440682Y-113637214D01*
X70440682Y-113637214D02*
X70297825Y-113780071D01*
X70297825Y-113780071D02*
X70440682Y-113922928D01*
X70440682Y-113922928D02*
X72154968Y-113780071D01*
X72154968Y-113780071D02*
X70297825Y-113780071D01*
X73012110Y-115208642D02*
X73154968Y-115351499D01*
X73154968Y-115351499D02*
X73297825Y-115208642D01*
X73297825Y-115208642D02*
X73154968Y-115065785D01*
X73154968Y-115065785D02*
X73012110Y-115208642D01*
X73012110Y-115208642D02*
X73297825Y-115208642D01*
X72154968Y-115208642D02*
X70440682Y-115065785D01*
X70440682Y-115065785D02*
X70297825Y-115208642D01*
X70297825Y-115208642D02*
X70440682Y-115351499D01*
X70440682Y-115351499D02*
X72154968Y-115208642D01*
X72154968Y-115208642D02*
X70297825Y-115208642D01*
X73012110Y-116637213D02*
X73154968Y-116780070D01*
X73154968Y-116780070D02*
X73297825Y-116637213D01*
X73297825Y-116637213D02*
X73154968Y-116494356D01*
X73154968Y-116494356D02*
X73012110Y-116637213D01*
X73012110Y-116637213D02*
X73297825Y-116637213D01*
X72154968Y-116637213D02*
X70440682Y-116494356D01*
X70440682Y-116494356D02*
X70297825Y-116637213D01*
X70297825Y-116637213D02*
X70440682Y-116780070D01*
X70440682Y-116780070D02*
X72154968Y-116637213D01*
X72154968Y-116637213D02*
X70297825Y-116637213D01*
M02*
